<mxfile host="app.diagrams.net" modified="2024-02-12T09:39:54.092Z" agent="Mozilla/5.0 (Windows NT 10.0; Win64; x64) AppleWebKit/537.36 (KHTML, like Gecko) Chrome/120.0.0.0 Safari/537.36" etag="PNVePlOuwq5rLIQ09uiw" version="23.1.2" type="gitlab">
  <diagram name="Page-1" id="03018318-947c-dd8e-b7a3-06fadd420f32">
    <mxGraphModel dx="1404" dy="67" grid="1" gridSize="10" guides="1" tooltips="1" connect="1" arrows="1" fold="1" page="1" pageScale="1" pageWidth="1100" pageHeight="850" background="none" math="0" shadow="0">
      <root>
        <mxCell id="0" />
        <mxCell id="1" parent="0" />
        <mxCell id="XIFiytp4miUg_fjSW4SD-60" value="" style="whiteSpace=wrap;html=1;rounded=0;shadow=0;labelBackgroundColor=none;strokeColor=#000000;strokeWidth=1;fillColor=none;fontFamily=Verdana;fontSize=12;fontColor=#000000;align=center;comic=1;" parent="1" vertex="1">
          <mxGeometry x="20" y="870" width="1060" height="810" as="geometry" />
        </mxCell>
        <mxCell id="XIFiytp4miUg_fjSW4SD-61" value="" style="line;strokeWidth=1;html=1;rounded=0;shadow=0;labelBackgroundColor=none;fillColor=none;fontFamily=Verdana;fontSize=14;fontColor=#000000;align=center;comic=1;" parent="1" vertex="1">
          <mxGeometry x="20" y="950" width="1060" height="10" as="geometry" />
        </mxCell>
        <mxCell id="XIFiytp4miUg_fjSW4SD-62" value="History" style="text;html=1;strokeColor=none;fillColor=none;align=center;verticalAlign=middle;whiteSpace=wrap;rounded=0;" parent="1" vertex="1">
          <mxGeometry x="445" y="900" width="60" height="30" as="geometry" />
        </mxCell>
        <mxCell id="XIFiytp4miUg_fjSW4SD-63" value="Docs" style="text;html=1;strokeColor=none;fillColor=none;align=center;verticalAlign=middle;whiteSpace=wrap;rounded=0;" parent="1" vertex="1">
          <mxGeometry x="505" y="900" width="60" height="30" as="geometry" />
        </mxCell>
        <mxCell id="XIFiytp4miUg_fjSW4SD-64" value="Image Upload" style="text;html=1;strokeColor=none;fillColor=none;align=center;verticalAlign=middle;whiteSpace=wrap;rounded=0;" parent="1" vertex="1">
          <mxGeometry x="565" y="900" width="90" height="30" as="geometry" />
        </mxCell>
        <mxCell id="XIFiytp4miUg_fjSW4SD-70" value="" style="line;strokeWidth=1;html=1;rounded=0;shadow=0;labelBackgroundColor=none;fillColor=none;fontFamily=Verdana;fontSize=14;fontColor=#000000;align=center;comic=1;" parent="1" vertex="1">
          <mxGeometry x="205" y="1000" width="660" height="10" as="geometry" />
        </mxCell>
        <mxCell id="XIFiytp4miUg_fjSW4SD-71" value="Date" style="text;html=1;strokeColor=none;fillColor=none;align=center;verticalAlign=middle;whiteSpace=wrap;rounded=0;" parent="1" vertex="1">
          <mxGeometry x="695" y="980" width="60" height="30" as="geometry" />
        </mxCell>
        <mxCell id="XIFiytp4miUg_fjSW4SD-72" value="Model" style="text;html=1;strokeColor=none;fillColor=none;align=center;verticalAlign=middle;whiteSpace=wrap;rounded=0;" parent="1" vertex="1">
          <mxGeometry x="755" y="980" width="60" height="30" as="geometry" />
        </mxCell>
        <mxCell id="XIFiytp4miUg_fjSW4SD-73" value="Label" style="text;html=1;strokeColor=none;fillColor=none;align=center;verticalAlign=middle;whiteSpace=wrap;rounded=0;" parent="1" vertex="1">
          <mxGeometry x="815" y="980" width="60" height="30" as="geometry" />
        </mxCell>
        <mxCell id="HyFQ231fpWqbcURQ_da2-68" value="" style="shape=table;startSize=0;container=1;collapsible=0;childLayout=tableLayout;fontSize=16;" parent="1" vertex="1">
          <mxGeometry x="202.5" y="1030" width="665" height="200" as="geometry" />
        </mxCell>
        <mxCell id="HyFQ231fpWqbcURQ_da2-69" value="" style="shape=tableRow;horizontal=0;startSize=0;swimlaneHead=0;swimlaneBody=0;strokeColor=inherit;top=0;left=0;bottom=0;right=0;collapsible=0;dropTarget=0;fillColor=none;points=[[0,0.5],[1,0.5]];portConstraint=eastwest;fontSize=16;" parent="HyFQ231fpWqbcURQ_da2-68" vertex="1">
          <mxGeometry width="665" height="40" as="geometry" />
        </mxCell>
        <mxCell id="HyFQ231fpWqbcURQ_da2-70" value="Image" style="shape=partialRectangle;html=1;whiteSpace=wrap;connectable=0;strokeColor=inherit;overflow=hidden;fillColor=none;top=0;left=0;bottom=0;right=0;pointerEvents=1;fontSize=16;" parent="HyFQ231fpWqbcURQ_da2-69" vertex="1">
          <mxGeometry width="95" height="40" as="geometry">
            <mxRectangle width="95" height="40" as="alternateBounds" />
          </mxGeometry>
        </mxCell>
        <mxCell id="HyFQ231fpWqbcURQ_da2-71" value="Label" style="shape=partialRectangle;html=1;whiteSpace=wrap;connectable=0;strokeColor=inherit;overflow=hidden;fillColor=none;top=0;left=0;bottom=0;right=0;pointerEvents=1;fontSize=16;" parent="HyFQ231fpWqbcURQ_da2-69" vertex="1">
          <mxGeometry x="95" width="96" height="40" as="geometry">
            <mxRectangle width="96" height="40" as="alternateBounds" />
          </mxGeometry>
        </mxCell>
        <mxCell id="HyFQ231fpWqbcURQ_da2-72" value="Model" style="shape=partialRectangle;html=1;whiteSpace=wrap;connectable=0;strokeColor=inherit;overflow=hidden;fillColor=none;top=0;left=0;bottom=0;right=0;pointerEvents=1;fontSize=16;" parent="HyFQ231fpWqbcURQ_da2-69" vertex="1">
          <mxGeometry x="191" width="94" height="40" as="geometry">
            <mxRectangle width="94" height="40" as="alternateBounds" />
          </mxGeometry>
        </mxCell>
        <mxCell id="HyFQ231fpWqbcURQ_da2-81" value="Date" style="shape=partialRectangle;html=1;whiteSpace=wrap;connectable=0;strokeColor=inherit;overflow=hidden;fillColor=none;top=0;left=0;bottom=0;right=0;pointerEvents=1;fontSize=16;" parent="HyFQ231fpWqbcURQ_da2-69" vertex="1">
          <mxGeometry x="285" width="95" height="40" as="geometry">
            <mxRectangle width="95" height="40" as="alternateBounds" />
          </mxGeometry>
        </mxCell>
        <mxCell id="HyFQ231fpWqbcURQ_da2-84" value="ID" style="shape=partialRectangle;html=1;whiteSpace=wrap;connectable=0;strokeColor=inherit;overflow=hidden;fillColor=none;top=0;left=0;bottom=0;right=0;pointerEvents=1;fontSize=16;" parent="HyFQ231fpWqbcURQ_da2-69" vertex="1">
          <mxGeometry x="380" width="102" height="40" as="geometry">
            <mxRectangle width="102" height="40" as="alternateBounds" />
          </mxGeometry>
        </mxCell>
        <mxCell id="HyFQ231fpWqbcURQ_da2-87" value="Delete" style="shape=partialRectangle;html=1;whiteSpace=wrap;connectable=0;strokeColor=inherit;overflow=hidden;fillColor=none;top=0;left=0;bottom=0;right=0;pointerEvents=1;fontSize=16;" parent="HyFQ231fpWqbcURQ_da2-69" vertex="1">
          <mxGeometry x="482" width="88" height="40" as="geometry">
            <mxRectangle width="88" height="40" as="alternateBounds" />
          </mxGeometry>
        </mxCell>
        <mxCell id="HyFQ231fpWqbcURQ_da2-90" value="Details" style="shape=partialRectangle;html=1;whiteSpace=wrap;connectable=0;strokeColor=inherit;overflow=hidden;fillColor=none;top=0;left=0;bottom=0;right=0;pointerEvents=1;fontSize=16;" parent="HyFQ231fpWqbcURQ_da2-69" vertex="1">
          <mxGeometry x="570" width="95" height="40" as="geometry">
            <mxRectangle width="95" height="40" as="alternateBounds" />
          </mxGeometry>
        </mxCell>
        <mxCell id="HyFQ231fpWqbcURQ_da2-73" value="" style="shape=tableRow;horizontal=0;startSize=0;swimlaneHead=0;swimlaneBody=0;strokeColor=inherit;top=0;left=0;bottom=0;right=0;collapsible=0;dropTarget=0;fillColor=none;points=[[0,0.5],[1,0.5]];portConstraint=eastwest;fontSize=16;" parent="HyFQ231fpWqbcURQ_da2-68" vertex="1">
          <mxGeometry y="40" width="665" height="40" as="geometry" />
        </mxCell>
        <mxCell id="HyFQ231fpWqbcURQ_da2-74" value="" style="shape=partialRectangle;html=1;whiteSpace=wrap;connectable=0;strokeColor=inherit;overflow=hidden;fillColor=none;top=0;left=0;bottom=0;right=0;pointerEvents=1;fontSize=16;" parent="HyFQ231fpWqbcURQ_da2-73" vertex="1">
          <mxGeometry width="95" height="40" as="geometry">
            <mxRectangle width="95" height="40" as="alternateBounds" />
          </mxGeometry>
        </mxCell>
        <mxCell id="HyFQ231fpWqbcURQ_da2-75" value="" style="shape=partialRectangle;html=1;whiteSpace=wrap;connectable=0;strokeColor=inherit;overflow=hidden;fillColor=none;top=0;left=0;bottom=0;right=0;pointerEvents=1;fontSize=16;" parent="HyFQ231fpWqbcURQ_da2-73" vertex="1">
          <mxGeometry x="95" width="96" height="40" as="geometry">
            <mxRectangle width="96" height="40" as="alternateBounds" />
          </mxGeometry>
        </mxCell>
        <mxCell id="HyFQ231fpWqbcURQ_da2-76" value="" style="shape=partialRectangle;html=1;whiteSpace=wrap;connectable=0;strokeColor=inherit;overflow=hidden;fillColor=none;top=0;left=0;bottom=0;right=0;pointerEvents=1;fontSize=16;" parent="HyFQ231fpWqbcURQ_da2-73" vertex="1">
          <mxGeometry x="191" width="94" height="40" as="geometry">
            <mxRectangle width="94" height="40" as="alternateBounds" />
          </mxGeometry>
        </mxCell>
        <mxCell id="HyFQ231fpWqbcURQ_da2-82" style="shape=partialRectangle;html=1;whiteSpace=wrap;connectable=0;strokeColor=inherit;overflow=hidden;fillColor=none;top=0;left=0;bottom=0;right=0;pointerEvents=1;fontSize=16;" parent="HyFQ231fpWqbcURQ_da2-73" vertex="1">
          <mxGeometry x="285" width="95" height="40" as="geometry">
            <mxRectangle width="95" height="40" as="alternateBounds" />
          </mxGeometry>
        </mxCell>
        <mxCell id="HyFQ231fpWqbcURQ_da2-85" style="shape=partialRectangle;html=1;whiteSpace=wrap;connectable=0;strokeColor=inherit;overflow=hidden;fillColor=none;top=0;left=0;bottom=0;right=0;pointerEvents=1;fontSize=16;" parent="HyFQ231fpWqbcURQ_da2-73" vertex="1">
          <mxGeometry x="380" width="102" height="40" as="geometry">
            <mxRectangle width="102" height="40" as="alternateBounds" />
          </mxGeometry>
        </mxCell>
        <mxCell id="HyFQ231fpWqbcURQ_da2-88" style="shape=partialRectangle;html=1;whiteSpace=wrap;connectable=0;strokeColor=inherit;overflow=hidden;fillColor=none;top=0;left=0;bottom=0;right=0;pointerEvents=1;fontSize=16;" parent="HyFQ231fpWqbcURQ_da2-73" vertex="1">
          <mxGeometry x="482" width="88" height="40" as="geometry">
            <mxRectangle width="88" height="40" as="alternateBounds" />
          </mxGeometry>
        </mxCell>
        <mxCell id="HyFQ231fpWqbcURQ_da2-91" style="shape=partialRectangle;html=1;whiteSpace=wrap;connectable=0;strokeColor=inherit;overflow=hidden;fillColor=none;top=0;left=0;bottom=0;right=0;pointerEvents=1;fontSize=16;" parent="HyFQ231fpWqbcURQ_da2-73" vertex="1">
          <mxGeometry x="570" width="95" height="40" as="geometry">
            <mxRectangle width="95" height="40" as="alternateBounds" />
          </mxGeometry>
        </mxCell>
        <mxCell id="HyFQ231fpWqbcURQ_da2-77" value="" style="shape=tableRow;horizontal=0;startSize=0;swimlaneHead=0;swimlaneBody=0;strokeColor=inherit;top=0;left=0;bottom=0;right=0;collapsible=0;dropTarget=0;fillColor=none;points=[[0,0.5],[1,0.5]];portConstraint=eastwest;fontSize=16;" parent="HyFQ231fpWqbcURQ_da2-68" vertex="1">
          <mxGeometry y="80" width="665" height="40" as="geometry" />
        </mxCell>
        <mxCell id="HyFQ231fpWqbcURQ_da2-78" value="" style="shape=partialRectangle;html=1;whiteSpace=wrap;connectable=0;strokeColor=inherit;overflow=hidden;fillColor=none;top=0;left=0;bottom=0;right=0;pointerEvents=1;fontSize=16;" parent="HyFQ231fpWqbcURQ_da2-77" vertex="1">
          <mxGeometry width="95" height="40" as="geometry">
            <mxRectangle width="95" height="40" as="alternateBounds" />
          </mxGeometry>
        </mxCell>
        <mxCell id="HyFQ231fpWqbcURQ_da2-79" value="" style="shape=partialRectangle;html=1;whiteSpace=wrap;connectable=0;strokeColor=inherit;overflow=hidden;fillColor=none;top=0;left=0;bottom=0;right=0;pointerEvents=1;fontSize=16;" parent="HyFQ231fpWqbcURQ_da2-77" vertex="1">
          <mxGeometry x="95" width="96" height="40" as="geometry">
            <mxRectangle width="96" height="40" as="alternateBounds" />
          </mxGeometry>
        </mxCell>
        <mxCell id="HyFQ231fpWqbcURQ_da2-80" value="" style="shape=partialRectangle;html=1;whiteSpace=wrap;connectable=0;strokeColor=inherit;overflow=hidden;fillColor=none;top=0;left=0;bottom=0;right=0;pointerEvents=1;fontSize=16;" parent="HyFQ231fpWqbcURQ_da2-77" vertex="1">
          <mxGeometry x="191" width="94" height="40" as="geometry">
            <mxRectangle width="94" height="40" as="alternateBounds" />
          </mxGeometry>
        </mxCell>
        <mxCell id="HyFQ231fpWqbcURQ_da2-83" style="shape=partialRectangle;html=1;whiteSpace=wrap;connectable=0;strokeColor=inherit;overflow=hidden;fillColor=none;top=0;left=0;bottom=0;right=0;pointerEvents=1;fontSize=16;" parent="HyFQ231fpWqbcURQ_da2-77" vertex="1">
          <mxGeometry x="285" width="95" height="40" as="geometry">
            <mxRectangle width="95" height="40" as="alternateBounds" />
          </mxGeometry>
        </mxCell>
        <mxCell id="HyFQ231fpWqbcURQ_da2-86" style="shape=partialRectangle;html=1;whiteSpace=wrap;connectable=0;strokeColor=inherit;overflow=hidden;fillColor=none;top=0;left=0;bottom=0;right=0;pointerEvents=1;fontSize=16;" parent="HyFQ231fpWqbcURQ_da2-77" vertex="1">
          <mxGeometry x="380" width="102" height="40" as="geometry">
            <mxRectangle width="102" height="40" as="alternateBounds" />
          </mxGeometry>
        </mxCell>
        <mxCell id="HyFQ231fpWqbcURQ_da2-89" style="shape=partialRectangle;html=1;whiteSpace=wrap;connectable=0;strokeColor=inherit;overflow=hidden;fillColor=none;top=0;left=0;bottom=0;right=0;pointerEvents=1;fontSize=16;" parent="HyFQ231fpWqbcURQ_da2-77" vertex="1">
          <mxGeometry x="482" width="88" height="40" as="geometry">
            <mxRectangle width="88" height="40" as="alternateBounds" />
          </mxGeometry>
        </mxCell>
        <mxCell id="HyFQ231fpWqbcURQ_da2-92" style="shape=partialRectangle;html=1;whiteSpace=wrap;connectable=0;strokeColor=inherit;overflow=hidden;fillColor=none;top=0;left=0;bottom=0;right=0;pointerEvents=1;fontSize=16;" parent="HyFQ231fpWqbcURQ_da2-77" vertex="1">
          <mxGeometry x="570" width="95" height="40" as="geometry">
            <mxRectangle width="95" height="40" as="alternateBounds" />
          </mxGeometry>
        </mxCell>
        <mxCell id="HyFQ231fpWqbcURQ_da2-112" style="shape=tableRow;horizontal=0;startSize=0;swimlaneHead=0;swimlaneBody=0;strokeColor=inherit;top=0;left=0;bottom=0;right=0;collapsible=0;dropTarget=0;fillColor=none;points=[[0,0.5],[1,0.5]];portConstraint=eastwest;fontSize=16;" parent="HyFQ231fpWqbcURQ_da2-68" vertex="1">
          <mxGeometry y="120" width="665" height="40" as="geometry" />
        </mxCell>
        <mxCell id="HyFQ231fpWqbcURQ_da2-113" style="shape=partialRectangle;html=1;whiteSpace=wrap;connectable=0;strokeColor=inherit;overflow=hidden;fillColor=none;top=0;left=0;bottom=0;right=0;pointerEvents=1;fontSize=16;" parent="HyFQ231fpWqbcURQ_da2-112" vertex="1">
          <mxGeometry width="95" height="40" as="geometry">
            <mxRectangle width="95" height="40" as="alternateBounds" />
          </mxGeometry>
        </mxCell>
        <mxCell id="HyFQ231fpWqbcURQ_da2-114" style="shape=partialRectangle;html=1;whiteSpace=wrap;connectable=0;strokeColor=inherit;overflow=hidden;fillColor=none;top=0;left=0;bottom=0;right=0;pointerEvents=1;fontSize=16;" parent="HyFQ231fpWqbcURQ_da2-112" vertex="1">
          <mxGeometry x="95" width="96" height="40" as="geometry">
            <mxRectangle width="96" height="40" as="alternateBounds" />
          </mxGeometry>
        </mxCell>
        <mxCell id="HyFQ231fpWqbcURQ_da2-115" style="shape=partialRectangle;html=1;whiteSpace=wrap;connectable=0;strokeColor=inherit;overflow=hidden;fillColor=none;top=0;left=0;bottom=0;right=0;pointerEvents=1;fontSize=16;" parent="HyFQ231fpWqbcURQ_da2-112" vertex="1">
          <mxGeometry x="191" width="94" height="40" as="geometry">
            <mxRectangle width="94" height="40" as="alternateBounds" />
          </mxGeometry>
        </mxCell>
        <mxCell id="HyFQ231fpWqbcURQ_da2-116" style="shape=partialRectangle;html=1;whiteSpace=wrap;connectable=0;strokeColor=inherit;overflow=hidden;fillColor=none;top=0;left=0;bottom=0;right=0;pointerEvents=1;fontSize=16;" parent="HyFQ231fpWqbcURQ_da2-112" vertex="1">
          <mxGeometry x="285" width="95" height="40" as="geometry">
            <mxRectangle width="95" height="40" as="alternateBounds" />
          </mxGeometry>
        </mxCell>
        <mxCell id="HyFQ231fpWqbcURQ_da2-117" style="shape=partialRectangle;html=1;whiteSpace=wrap;connectable=0;strokeColor=inherit;overflow=hidden;fillColor=none;top=0;left=0;bottom=0;right=0;pointerEvents=1;fontSize=16;" parent="HyFQ231fpWqbcURQ_da2-112" vertex="1">
          <mxGeometry x="380" width="102" height="40" as="geometry">
            <mxRectangle width="102" height="40" as="alternateBounds" />
          </mxGeometry>
        </mxCell>
        <mxCell id="HyFQ231fpWqbcURQ_da2-118" style="shape=partialRectangle;html=1;whiteSpace=wrap;connectable=0;strokeColor=inherit;overflow=hidden;fillColor=none;top=0;left=0;bottom=0;right=0;pointerEvents=1;fontSize=16;" parent="HyFQ231fpWqbcURQ_da2-112" vertex="1">
          <mxGeometry x="482" width="88" height="40" as="geometry">
            <mxRectangle width="88" height="40" as="alternateBounds" />
          </mxGeometry>
        </mxCell>
        <mxCell id="HyFQ231fpWqbcURQ_da2-119" style="shape=partialRectangle;html=1;whiteSpace=wrap;connectable=0;strokeColor=inherit;overflow=hidden;fillColor=none;top=0;left=0;bottom=0;right=0;pointerEvents=1;fontSize=16;" parent="HyFQ231fpWqbcURQ_da2-112" vertex="1">
          <mxGeometry x="570" width="95" height="40" as="geometry">
            <mxRectangle width="95" height="40" as="alternateBounds" />
          </mxGeometry>
        </mxCell>
        <mxCell id="HyFQ231fpWqbcURQ_da2-104" style="shape=tableRow;horizontal=0;startSize=0;swimlaneHead=0;swimlaneBody=0;strokeColor=inherit;top=0;left=0;bottom=0;right=0;collapsible=0;dropTarget=0;fillColor=none;points=[[0,0.5],[1,0.5]];portConstraint=eastwest;fontSize=16;" parent="HyFQ231fpWqbcURQ_da2-68" vertex="1">
          <mxGeometry y="160" width="665" height="40" as="geometry" />
        </mxCell>
        <mxCell id="HyFQ231fpWqbcURQ_da2-105" style="shape=partialRectangle;html=1;whiteSpace=wrap;connectable=0;strokeColor=inherit;overflow=hidden;fillColor=none;top=0;left=0;bottom=0;right=0;pointerEvents=1;fontSize=16;" parent="HyFQ231fpWqbcURQ_da2-104" vertex="1">
          <mxGeometry width="95" height="40" as="geometry">
            <mxRectangle width="95" height="40" as="alternateBounds" />
          </mxGeometry>
        </mxCell>
        <mxCell id="HyFQ231fpWqbcURQ_da2-106" style="shape=partialRectangle;html=1;whiteSpace=wrap;connectable=0;strokeColor=inherit;overflow=hidden;fillColor=none;top=0;left=0;bottom=0;right=0;pointerEvents=1;fontSize=16;" parent="HyFQ231fpWqbcURQ_da2-104" vertex="1">
          <mxGeometry x="95" width="96" height="40" as="geometry">
            <mxRectangle width="96" height="40" as="alternateBounds" />
          </mxGeometry>
        </mxCell>
        <mxCell id="HyFQ231fpWqbcURQ_da2-107" style="shape=partialRectangle;html=1;whiteSpace=wrap;connectable=0;strokeColor=inherit;overflow=hidden;fillColor=none;top=0;left=0;bottom=0;right=0;pointerEvents=1;fontSize=16;" parent="HyFQ231fpWqbcURQ_da2-104" vertex="1">
          <mxGeometry x="191" width="94" height="40" as="geometry">
            <mxRectangle width="94" height="40" as="alternateBounds" />
          </mxGeometry>
        </mxCell>
        <mxCell id="HyFQ231fpWqbcURQ_da2-108" style="shape=partialRectangle;html=1;whiteSpace=wrap;connectable=0;strokeColor=inherit;overflow=hidden;fillColor=none;top=0;left=0;bottom=0;right=0;pointerEvents=1;fontSize=16;" parent="HyFQ231fpWqbcURQ_da2-104" vertex="1">
          <mxGeometry x="285" width="95" height="40" as="geometry">
            <mxRectangle width="95" height="40" as="alternateBounds" />
          </mxGeometry>
        </mxCell>
        <mxCell id="HyFQ231fpWqbcURQ_da2-109" style="shape=partialRectangle;html=1;whiteSpace=wrap;connectable=0;strokeColor=inherit;overflow=hidden;fillColor=none;top=0;left=0;bottom=0;right=0;pointerEvents=1;fontSize=16;" parent="HyFQ231fpWqbcURQ_da2-104" vertex="1">
          <mxGeometry x="380" width="102" height="40" as="geometry">
            <mxRectangle width="102" height="40" as="alternateBounds" />
          </mxGeometry>
        </mxCell>
        <mxCell id="HyFQ231fpWqbcURQ_da2-110" style="shape=partialRectangle;html=1;whiteSpace=wrap;connectable=0;strokeColor=inherit;overflow=hidden;fillColor=none;top=0;left=0;bottom=0;right=0;pointerEvents=1;fontSize=16;" parent="HyFQ231fpWqbcURQ_da2-104" vertex="1">
          <mxGeometry x="482" width="88" height="40" as="geometry">
            <mxRectangle width="88" height="40" as="alternateBounds" />
          </mxGeometry>
        </mxCell>
        <mxCell id="HyFQ231fpWqbcURQ_da2-111" style="shape=partialRectangle;html=1;whiteSpace=wrap;connectable=0;strokeColor=inherit;overflow=hidden;fillColor=none;top=0;left=0;bottom=0;right=0;pointerEvents=1;fontSize=16;" parent="HyFQ231fpWqbcURQ_da2-104" vertex="1">
          <mxGeometry x="570" width="95" height="40" as="geometry">
            <mxRectangle width="95" height="40" as="alternateBounds" />
          </mxGeometry>
        </mxCell>
        <mxCell id="HyFQ231fpWqbcURQ_da2-120" value="Delete" style="rounded=1;whiteSpace=wrap;html=1;fillColor=#FF0008;" parent="1" vertex="1">
          <mxGeometry x="689" y="1075" width="80" height="30" as="geometry" />
        </mxCell>
        <mxCell id="HyFQ231fpWqbcURQ_da2-121" value="Delete" style="rounded=1;whiteSpace=wrap;html=1;fillColor=#FF0008;" parent="1" vertex="1">
          <mxGeometry x="689" y="1115" width="80" height="30" as="geometry" />
        </mxCell>
        <mxCell id="HyFQ231fpWqbcURQ_da2-122" value="Delete" style="rounded=1;whiteSpace=wrap;html=1;fillColor=#FF0008;" parent="1" vertex="1">
          <mxGeometry x="689" y="1155" width="80" height="30" as="geometry" />
        </mxCell>
        <mxCell id="HyFQ231fpWqbcURQ_da2-123" value="Delete" style="rounded=1;whiteSpace=wrap;html=1;fillColor=#FF0008;" parent="1" vertex="1">
          <mxGeometry x="689" y="1195" width="80" height="30" as="geometry" />
        </mxCell>
      </root>
    </mxGraphModel>
  </diagram>
</mxfile>
